<svg width="240" height="240" viewBox="0 0 100 100" xmlns="http://www.w3.org/2000/svg">
  <defs><linearGradient id="g" x1="0" y1="0" x2="1" y2="1"><stop offset="0" stop-color="#6366f1"/><stop offset="0.55" stop-color="#8b5cf6"/><stop offset="1" stop-color="#ec4899"/></linearGradient></defs>
  <rect width="100" height="100" rx="22" fill="#12121a"/>
  <path d="M20 14 h60 a14 14 0 0 1 14 14 v34 a14 14 0 0 1 -14 14 h-30 l-18 16 a3 3 0 0 1 -5 -2.3 v-13.7 h-7 a14 14 0 0 1 -14 -14 v-34 a14 14 0 0 1 14 -14 z" fill="url(#g)"/>
  <circle cx="38" cy="44" r="6" fill="#fff"/><circle cx="62" cy="44" r="6" fill="#fff"/>
  <path d="M36 58 q14 12 28 0" fill="none" stroke="#fff" stroke-width="5" stroke-linecap="round"/>
</svg>
